<svg width="215" height="48" viewBox="0 0 215 48" fill="none" xmlns="http://www.w3.org/2000/svg">
<path d="M2.52841 9.90909H10.1136L18.125 29.4545H18.4659L26.4773 9.90909H34.0625V39H28.0966V20.0653H27.8551L20.3267 38.858H16.2642L8.7358 19.9943H8.49432V39H2.52841V9.90909ZM65.8629 24.4545C65.8629 27.6269 65.2616 30.3258 64.0589 32.5511C62.8658 34.7765 61.237 36.4763 59.1726 37.6506C57.1177 38.8153 54.8071 39.3977 52.2408 39.3977C49.6555 39.3977 47.3355 38.8106 45.2805 37.6364C43.2256 36.4621 41.6016 34.7623 40.4084 32.5369C39.2152 30.3116 38.6186 27.6174 38.6186 24.4545C38.6186 21.2822 39.2152 18.5833 40.4084 16.358C41.6016 14.1326 43.2256 12.4375 45.2805 11.2727C47.3355 10.0985 49.6555 9.51136 52.2408 9.51136C54.8071 9.51136 57.1177 10.0985 59.1726 11.2727C61.237 12.4375 62.8658 14.1326 64.0589 16.358C65.2616 18.5833 65.8629 21.2822 65.8629 24.4545ZM59.6271 24.4545C59.6271 22.3996 59.3194 20.6667 58.7038 19.2557C58.0978 17.8447 57.2408 16.7746 56.1328 16.0455C55.0249 15.3163 53.7275 14.9517 52.2408 14.9517C50.754 14.9517 49.4567 15.3163 48.3487 16.0455C47.2408 16.7746 46.379 17.8447 45.7635 19.2557C45.1574 20.6667 44.8544 22.3996 44.8544 24.4545C44.8544 26.5095 45.1574 28.2424 45.7635 29.6534C46.379 31.0644 47.2408 32.1345 48.3487 32.8636C49.4567 33.5928 50.754 33.9574 52.2408 33.9574C53.7275 33.9574 55.0249 33.5928 56.1328 32.8636C57.2408 32.1345 58.0978 31.0644 58.7038 29.6534C59.3194 28.2424 59.6271 26.5095 59.6271 24.4545ZM74.0341 9.90909L81.0653 32.0114H81.3352L88.3807 9.90909H95.1989L85.1705 39H77.2443L67.2017 9.90909H74.0341ZM104.851 9.90909V39H98.7003V9.90909H104.851ZM109.911 39V9.90909H129.513V14.9801H116.062V21.9119H128.505V26.983H116.062V33.929H129.57V39H109.911ZM150.185 18.2756C150.071 17.1297 149.583 16.2396 148.722 15.6051C147.86 14.9706 146.69 14.6534 145.213 14.6534C144.209 14.6534 143.362 14.7955 142.67 15.0795C141.979 15.3542 141.449 15.7377 141.08 16.2301C140.72 16.7225 140.54 17.2812 140.54 17.9062C140.521 18.4271 140.63 18.8816 140.866 19.2699C141.113 19.6581 141.449 19.9943 141.875 20.2784C142.301 20.553 142.794 20.7945 143.352 21.0028C143.911 21.2017 144.508 21.3722 145.142 21.5142L147.756 22.1392C149.025 22.4233 150.189 22.8021 151.25 23.2756C152.311 23.7491 153.229 24.3314 154.006 25.0227C154.782 25.714 155.384 26.5284 155.81 27.4659C156.245 28.4034 156.468 29.4782 156.477 30.6903C156.468 32.4706 156.013 34.0142 155.114 35.321C154.223 36.6184 152.936 37.6269 151.25 38.3466C149.574 39.0568 147.552 39.4119 145.185 39.4119C142.836 39.4119 140.791 39.0521 139.048 38.3324C137.315 37.6127 135.961 36.5473 134.986 35.1364C134.02 33.7159 133.513 31.9593 133.466 29.8665H139.418C139.484 30.8419 139.763 31.6562 140.256 32.3097C140.758 32.9536 141.425 33.4413 142.259 33.7727C143.101 34.0947 144.053 34.2557 145.114 34.2557C146.155 34.2557 147.06 34.1042 147.827 33.8011C148.603 33.4981 149.205 33.0767 149.631 32.5369C150.057 31.9972 150.27 31.3769 150.27 30.6761C150.27 30.0227 150.076 29.4735 149.688 29.0284C149.309 28.5833 148.75 28.2045 148.011 27.892C147.282 27.5795 146.387 27.2955 145.327 27.0398L142.159 26.2443C139.706 25.6477 137.77 24.715 136.349 23.446C134.929 22.1771 134.223 20.4678 134.233 18.3182C134.223 16.5568 134.692 15.018 135.639 13.7017C136.596 12.3854 137.907 11.358 139.574 10.6193C141.241 9.88068 143.134 9.51136 145.256 9.51136C147.415 9.51136 149.299 9.88068 150.909 10.6193C152.528 11.358 153.788 12.3854 154.688 13.7017C155.587 15.018 156.051 16.5426 156.08 18.2756H150.185Z" fill="white"/>
<path d="M160.004 33.8864V29.0426L172.148 9.90909H176.325V16.6136H173.853L166.197 28.7301V28.9574H183.455V33.8864H160.004ZM173.967 39V32.4091L174.08 30.2642V9.90909H179.847V39H173.967ZM205.692 9.90909H211.843V28.8011C211.843 30.9223 211.336 32.7784 210.323 34.3693C209.319 35.9602 207.913 37.2008 206.104 38.0909C204.296 38.9716 202.189 39.4119 199.783 39.4119C197.369 39.4119 195.257 38.9716 193.448 38.0909C191.639 37.2008 190.233 35.9602 189.229 34.3693C188.226 32.7784 187.724 30.9223 187.724 28.8011V9.90909H193.874V28.2756C193.874 29.3835 194.116 30.3684 194.599 31.2301C195.091 32.0919 195.782 32.7689 196.673 33.2614C197.563 33.7538 198.6 34 199.783 34C200.977 34 202.013 33.7538 202.894 33.2614C203.784 32.7689 204.471 32.0919 204.954 31.2301C205.446 30.3684 205.692 29.3835 205.692 28.2756V9.90909Z" fill="#FFD600"/>
</svg>
